# xmcd
#
# Track frame offsets: 
#        150
#        12322
#        24065
#        34320
#        47635
#        60310
#        69972
#        80502
#        90142
#        102772
#        116167
#        127440
#        144572
#        154722
#        167725
#        178265
#        191687
#
# Disc length: 2689 seconds
#
# Revision: 0
# Processed by: cddbd v1.5.2PL0 Copyright (c) Steve Scherf et al.
# Submitted via: ExactAudioCopy v0.99pb5
#
DISCID=dc0a7f11
DTITLE=Various Artist - Sounds Of The Sixties - Country Style - CD 2
DYEAR=2001
DGENRE=Oldies
TTITLE0=Sonny James - Only the lonely (know the way I feel)
TTITLE1=Jack Greene - There goes my everything
TTITLE2=Eddy Arnold - If you were mine Mary
TTITLE3=David Houston - Almost persuaded
TTITLE4=Jerry Wallace - In the misty moonlight
TTITLE5=Slim Whitman - I remember you
TTITLE6=Charley Pride - Does my ring hurt your finger
TTITLE7=Eddy Arnold - Misty Blue
TTITLE8=Dolly Parton - In the ghetto
TTITLE9=Glen Campbell - Gentle on my mind
TTITLE10=Hank Williams Jr. - Endless sleep
TTITLE11=Bobbie Gentry - The fool on the hill
TTITLE12=Wanda Jackson - By the time you get to Phoenix
TTITLE13=Willie Nelson - Crazy
TTITLE14=Ferlin Husky - Wings of a dove
TTITLE15=Freddy Weller - Games people play
TTITLE16=Willie Nelson - Bring me sunshine
EXTD=
EXTT0=
EXTT1=
EXTT2=
EXTT3=
EXTT4=
EXTT5=
EXTT6=
EXTT7=
EXTT8=
EXTT9=
EXTT10=
EXTT11=
EXTT12=
EXTT13=
EXTT14=
EXTT15=
EXTT16=
PLAYORDER=
